<svg width="210" height="156" viewBox="0 0 210 156" fill="none" xmlns="http://www.w3.org/2000/svg">
<g filter="url(#filter0_d_1388_715)">
<path d="M98 13.3396C101.094 11.5533 104.906 11.5533 108 13.3396L153.622 39.6794C156.716 41.4658 158.622 44.7671 158.622 48.3396V101.019C158.622 104.592 156.716 107.893 153.622 109.679L108 136.019C104.906 137.806 101.094 137.806 98 136.019L52.3779 109.679C49.2841 107.893 47.378 104.592 47.3779 101.019V48.3396C47.378 44.7671 49.2841 41.4658 52.3779 39.6794L98 13.3396Z" stroke="#7DE8AD" stroke-width="10" shape-rendering="crispEdges"/>
</g>
<path d="M128.085 59.1537H115.359V52.8375C115.359 51.0907 113.938 49.6794 112.178 49.6794H93.0889C91.3291 49.6794 89.9074 51.0907 89.9074 52.8375V59.1537H77.1815C75.4217 59.1537 74 60.565 74 62.3118V98.6298C74 99.4983 74.7158 100.209 75.5907 100.209H129.676C130.551 100.209 131.267 99.4983 131.267 98.6298V62.3118C131.267 60.565 129.845 59.1537 128.085 59.1537ZM89.9074 92.7084C89.9074 93.3598 89.3705 93.8927 88.7144 93.8927H84.7375C84.0813 93.8927 83.5444 93.3598 83.5444 92.7084V88.7608C83.5444 88.1094 84.0813 87.5765 84.7375 87.5765H88.7144C89.3705 87.5765 89.9074 88.1094 89.9074 88.7608V92.7084ZM89.9074 80.076C89.9074 80.7274 89.3705 81.2603 88.7144 81.2603H84.7375C84.0813 81.2603 83.5444 80.7274 83.5444 80.076V76.1284C83.5444 75.4771 84.0813 74.9441 84.7375 74.9441H88.7144C89.3705 74.9441 89.9074 75.4771 89.9074 76.1284V80.076ZM105.815 92.7084C105.815 93.3598 105.278 93.8927 104.622 93.8927H100.645C99.9887 93.8927 99.4519 93.3598 99.4519 92.7084V88.7608C99.4519 88.1094 99.9887 87.5765 100.645 87.5765H104.622C105.278 87.5765 105.815 88.1094 105.815 88.7608V92.7084ZM105.815 80.076C105.815 80.7274 105.278 81.2603 104.622 81.2603H100.645C99.9887 81.2603 99.4519 80.7274 99.4519 80.076V76.1284C99.4519 75.4771 99.9887 74.9441 100.645 74.9441H104.622C105.278 74.9441 105.815 75.4771 105.815 76.1284V80.076ZM107.406 63.2987C107.406 63.6244 107.137 63.8908 106.809 63.8908H104.224V66.4568C104.224 66.7825 103.956 67.0489 103.628 67.0489H101.639C101.311 67.0489 101.043 66.7825 101.043 66.4568V63.8908H98.4576C98.1296 63.8908 97.8611 63.6244 97.8611 63.2987V61.3249C97.8611 60.9992 98.1296 60.7328 98.4576 60.7328H101.043V58.1668C101.043 57.8411 101.311 57.5747 101.639 57.5747H103.628C103.956 57.5747 104.224 57.8411 104.224 58.1668V60.7328H106.809C107.137 60.7328 107.406 60.9992 107.406 61.3249V63.2987ZM121.722 92.7084C121.722 93.3598 121.185 93.8927 120.529 93.8927H116.552C115.896 93.8927 115.359 93.3598 115.359 92.7084V88.7608C115.359 88.1094 115.896 87.5765 116.552 87.5765H120.529C121.185 87.5765 121.722 88.1094 121.722 88.7608V92.7084ZM121.722 80.076C121.722 80.7274 121.185 81.2603 120.529 81.2603H116.552C115.896 81.2603 115.359 80.7274 115.359 80.076V76.1284C115.359 75.4771 115.896 74.9441 116.552 74.9441H120.529C121.185 74.9441 121.722 75.4771 121.722 76.1284V80.076Z" fill="url(#paint0_linear_1388_715)"/>
<circle cx="10" cy="33.6794" r="10" fill="url(#paint1_linear_1388_715)"/>
<circle cx="197.576" cy="128.256" r="10" transform="rotate(80.0571 197.576 128.256)" fill="url(#paint2_linear_1388_715)"/>
<defs>
<filter id="filter0_d_1388_715" x="35.3782" y="0" width="141.244" height="155.359" filterUnits="userSpaceOnUse" color-interpolation-filters="sRGB">
<feFlood flood-opacity="0" result="BackgroundImageFix"/>
<feColorMatrix in="SourceAlpha" type="matrix" values="0 0 0 0 0 0 0 0 0 0 0 0 0 0 0 0 0 0 127 0" result="hardAlpha"/>
<feOffset dx="3" dy="3"/>
<feGaussianBlur stdDeviation="5"/>
<feComposite in2="hardAlpha" operator="out"/>
<feColorMatrix type="matrix" values="0 0 0 0 0 0 0 0 0 0 0 0 0 0 0 0 0 0 0.25 0"/>
<feBlend mode="normal" in2="BackgroundImageFix" result="effect1_dropShadow_1388_715"/>
<feBlend mode="normal" in="SourceGraphic" in2="effect1_dropShadow_1388_715" result="shape"/>
</filter>
<linearGradient id="paint0_linear_1388_715" x1="126.659" y1="100.209" x2="78.6079" y2="49.6794" gradientUnits="userSpaceOnUse">
<stop stop-color="#0E994D"/>
<stop offset="1" stop-color="#76E3A7"/>
</linearGradient>
<linearGradient id="paint1_linear_1388_715" x1="-1.85131e-07" y1="26.1592" x2="20" y2="41.1997" gradientUnits="userSpaceOnUse">
<stop stop-color="#25AA61"/>
<stop offset="0.730769" stop-color="white"/>
</linearGradient>
<linearGradient id="paint2_linear_1388_715" x1="187.576" y1="120.736" x2="207.576" y2="135.776" gradientUnits="userSpaceOnUse">
<stop stop-color="#25AA61"/>
<stop offset="0.730769" stop-color="white"/>
</linearGradient>
</defs>
</svg>
