<svg width="1320" height="1188" viewBox="0 0 1320 1188" fill="none" xmlns="http://www.w3.org/2000/svg">
<g filter="url(#filter0_d_58_90)">
<rect x="115.444" y="102.453" width="1084.94" height="1054.47" rx="527.234" fill="#F9F9F9"/>
<path d="M258.715 399.658C266.211 406.227 272.259 414.602 276.401 424.149C280.542 433.696 282.667 444.164 282.616 454.758V733.739C282.616 752.236 275.989 769.976 264.194 783.056C252.398 796.136 236.4 803.484 219.719 803.484C214.705 804.156 209.637 804.156 204.623 803.484L78.8287 768.611C64.8732 764.793 52.5184 755.789 43.8209 743.099C35.1234 730.409 30.6081 714.798 31.0267 698.866V489.63C30.6081 473.698 35.1234 458.087 43.8209 445.397C52.5184 432.707 64.8732 423.703 78.8287 419.885L204.623 385.012C214.048 382.685 223.83 382.796 233.21 385.336C242.591 387.876 251.318 392.777 258.715 399.658ZM1241.17 421.977L1115.38 387.104C1106.11 384.565 1096.45 384.396 1087.12 386.609C1077.8 388.822 1069.04 393.359 1061.53 399.877C1054.01 406.395 1047.93 414.723 1043.75 424.231C1039.57 433.739 1037.39 444.178 1037.38 454.758V733.739C1037.38 752.236 1044.01 769.976 1055.81 783.056C1067.6 796.136 1083.6 803.484 1100.28 803.484C1105.29 804.156 1110.36 804.156 1115.38 803.484L1241.17 768.611C1255.13 764.793 1267.48 755.789 1276.18 743.099C1284.88 730.409 1289.39 714.798 1288.97 698.866V489.63C1288.96 474.054 1284.25 458.93 1275.59 446.669C1266.92 434.408 1254.81 425.715 1241.17 421.977ZM785.795 31H534.205C517.524 31 501.526 38.3481 489.73 51.4279C477.935 64.5077 471.308 82.2476 471.308 100.745V315.267C471.308 333.764 477.935 351.504 489.73 364.584C501.526 377.664 517.524 385.012 534.205 385.012H785.795C802.476 385.012 818.474 377.664 830.27 364.584C842.065 351.504 848.692 333.764 848.692 315.267V100.745C848.692 82.2476 842.065 64.5077 830.27 51.4279C818.474 38.3481 802.476 31 785.795 31Z" fill="#03184F"/>
<path d="M1092.72 226.954H226.623C188.34 226.954 151.624 242.162 124.553 269.233C97.4825 296.303 82.2744 333.019 82.2744 371.303V764.653C82.2744 802.937 97.4825 839.653 124.553 866.723C151.624 893.794 188.34 909.002 226.623 909.002H352.928C392.145 909.002 430.823 899.871 465.899 882.333C500.976 864.795 531.487 839.331 555.017 807.958C565.062 794.47 578.13 783.527 593.172 776.006C608.213 768.485 624.809 764.597 641.626 764.653H677.713C694.53 764.597 711.126 768.485 726.168 776.006C741.209 783.527 754.278 794.47 764.323 807.958C787.853 839.331 818.364 864.795 853.44 882.333C888.517 899.871 927.195 909.002 966.411 909.002H1092.72C1131 909.002 1167.72 893.794 1194.79 866.723C1221.86 839.653 1237.07 802.937 1237.07 764.653V371.303C1237.07 333.019 1221.86 296.303 1194.79 269.233C1167.72 242.162 1131 226.954 1092.72 226.954Z" fill="#3184EF"/>
<path d="M484.286 951.224C533.694 1012.64 593.782 1048.66 658.587 1048.66C723.393 1048.66 783.48 1012.64 832.889 951.224" stroke="#3183EF" stroke-width="46.5065" stroke-linecap="round"/>
<path d="M660.388 317.188C684.585 317.188 704.202 336.795 704.202 361.002V460.777H803.977C828.173 460.777 847.791 480.383 847.791 504.59C847.791 528.798 828.173 548.405 803.977 548.405H704.202V648.179C704.202 672.387 684.585 691.994 660.388 691.994C636.191 691.993 616.574 672.387 616.574 648.179V548.405H516.8C492.603 548.405 472.985 528.798 472.985 504.59C472.986 480.383 492.603 460.777 516.8 460.777H616.574V361.002C616.574 336.795 636.191 317.188 660.388 317.188Z" fill="#F9F9F9" stroke="#F9F9F9" stroke-width="8.09743"/>
</g>
<defs>
<filter id="filter0_d_58_90" x="-0.00431252" y="-0.00431252" width="1320.01" height="1187.93" filterUnits="userSpaceOnUse" color-interpolation-filters="sRGB">
<feFlood flood-opacity="0" result="BackgroundImageFix"/>
<feColorMatrix in="SourceAlpha" type="matrix" values="0 0 0 0 0 0 0 0 0 0 0 0 0 0 0 0 0 0 127 0" result="hardAlpha"/>
<feOffset/>
<feGaussianBlur stdDeviation="15.5022"/>
<feComposite in2="hardAlpha" operator="out"/>
<feColorMatrix type="matrix" values="0 0 0 0 0 0 0 0 0 0 0 0 0 0 0 0 0 0 0.5 0"/>
<feBlend mode="normal" in2="BackgroundImageFix" result="effect1_dropShadow_58_90"/>
<feBlend mode="normal" in="SourceGraphic" in2="effect1_dropShadow_58_90" result="shape"/>
</filter>
</defs>
</svg>
